<?xml version="1.0" encoding="UTF-8" standalone="no"?>
<svg
   xmlns:dc="http://purl.org/dc/elements/1.1/"
   xmlns:cc="http://creativecommons.org/ns#"
   xmlns:rdf="http://www.w3.org/1999/02/22-rdf-syntax-ns#"
   xmlns:svg="http://www.w3.org/2000/svg"
   xmlns="http://www.w3.org/2000/svg"
   xmlns:sodipodi="http://sodipodi.sourceforge.net/DTD/sodipodi-0.dtd"
   xmlns:inkscape="http://www.inkscape.org/namespaces/inkscape"
   height="32"
   width="32"
   version="1.0"
   viewBox="0 0 32 32"
   id="svg4"
   sodipodi:docname="room-deleted.svg"
   inkscape:version="0.92.5 (2060ec1f9f, 2020-04-08)">
  <metadata
     id="metadata10">
    <rdf:RDF>
      <cc:Work
         rdf:about="">
        <dc:format>image/svg+xml</dc:format>
        <dc:type
           rdf:resource="http://purl.org/dc/dcmitype/StillImage" />
        <dc:title />
      </cc:Work>
    </rdf:RDF>
  </metadata>
  <defs
     id="defs8" />
  <sodipodi:namedview
     pagecolor="#ffffff"
     bordercolor="#666666"
     borderopacity="1"
     objecttolerance="10"
     gridtolerance="10"
     guidetolerance="10"
     inkscape:pageopacity="0"
     inkscape:pageshadow="2"
     inkscape:window-width="1479"
     inkscape:window-height="997"
     id="namedview6"
     showgrid="false"
     inkscape:zoom="7.375"
     inkscape:cx="-12.706802"
     inkscape:cy="6.3922409"
     inkscape:window-x="2110"
     inkscape:window-y="585"
     inkscape:window-maximized="0"
     inkscape:current-layer="svg4"
     showguides="false" />
  <path
     style="color:#000000;font-style:normal;font-variant:normal;font-weight:normal;font-stretch:normal;font-size:medium;line-height:normal;font-family:sans-serif;font-variant-ligatures:normal;font-variant-position:normal;font-variant-caps:normal;font-variant-numeric:normal;font-variant-alternates:normal;font-feature-settings:normal;text-indent:0;text-align:start;text-decoration:none;text-decoration-line:none;text-decoration-style:solid;text-decoration-color:#000000;letter-spacing:normal;word-spacing:normal;text-transform:none;writing-mode:lr-tb;direction:ltr;text-orientation:mixed;dominant-baseline:auto;baseline-shift:baseline;text-anchor:start;white-space:normal;shape-padding:0;clip-rule:nonzero;display:inline;overflow:visible;visibility:visible;opacity:1;isolation:auto;mix-blend-mode:normal;color-interpolation:sRGB;color-interpolation-filters:linearRGB;solid-color:#000000;solid-opacity:1;vector-effect:none;fill:#000000;fill-opacity:1;fill-rule:nonzero;stroke:none;stroke-width:2.48244119;stroke-linecap:round;stroke-linejoin:miter;stroke-miterlimit:4;stroke-dasharray:none;stroke-dashoffset:0;stroke-opacity:1;paint-order:markers stroke fill;color-rendering:auto;image-rendering:auto;shape-rendering:auto;text-rendering:auto;enable-background:accumulate"
     d="M 6.140625,2 C 3.8448872,2 2,3.9362265 2,6.2421875 V 25.757812 C 2,28.063773 3.8448872,30 6.140625,30 h 19.71875 C 28.155113,30 30,28.063773 30,25.757812 V 6.2421875 C 30,3.9362265 28.155113,2 25.859375,2 Z m 0,2.4824219 h 19.71875 c 0.917462,0 1.658203,0.7417266 1.658203,1.7597656 V 25.757812 c 0,1.01804 -0.740741,1.759766 -1.658203,1.759766 H 6.140625 c -0.9174623,0 -1.6582031,-0.741726 -1.6582031,-1.759766 V 6.2421875 c 0,-1.018039 0.7407408,-1.7597656 1.6582031,-1.7597656 z"
     id="rect817"
     inkscape:connector-curvature="0" />
  <g
     aria-label="x"
     transform="scale(1.1615081,0.86094965)"
     style="font-style:normal;font-variant:normal;font-weight:normal;font-stretch:normal;font-size:22.08222961px;line-height:125%;font-family:'Helvetica Neue';-inkscape-font-specification:'Helvetica Neue';letter-spacing:0px;word-spacing:0px;fill:#000000;fill-opacity:1;stroke:none;stroke-width:1.18297648px;stroke-linecap:butt;stroke-linejoin:miter;stroke-opacity:1"
     id="text817">
    <path
       d="m 16.79427,27.321108 0.353316,0.08833 1.501592,-0.59622 0.176657,-0.176658 0.684549,-0.419562 v -0.176658 h 0.08833 l 0.06625,0.08833 0.08833,-0.176658 v -0.441645 l -0.331233,-0.220822 0.08833,-0.176658 -0.59622,-0.839125 v -0.176658 l -0.220822,-0.19874 -0.110411,-0.39748 h -0.08833 v -0.242904 l 0.08833,0.08833 0.06625,-0.353316 -0.06625,-0.08833 -0.08833,0.176658 h -0.08833 v -0.08833 l -0.08833,-0.08833 v -0.242904 l -0.176658,0.08833 -0.06625,-0.176657 v -0.839125 l -0.861207,-1.700332 h -0.242905 v -0.242904 h -0.19874 l 0.110411,-0.353316 -0.08833,-0.06625 -0.08833,-0.176657 -0.242904,-0.264987 -0.176658,-0.242905 v -0.08833 l -0.08833,-0.242904 -0.154576,-0.176658 v -0.176658 l -0.309151,-0.375398 0.176658,-0.176658 0.154576,0.154576 0.39748,-0.772878 -0.353316,0.331233 v -0.264986 l 0.220822,-0.419563 h 0.132494 l 0.242904,-0.331233 0.176658,-0.331234 -0.176658,0.06625 H 16.551366 L 16.79427,15.55128 v -0.08833 l 0.331234,-0.331234 h 0.176658 v 0.331234 l -0.242905,0.264986 0.110411,0.132494 0.552056,-0.552056 0.353316,-0.176658 v -0.08833 l -0.507892,0.264987 v -0.08833 l 0.154576,-0.176658 0.132493,-0.242904 h 0.220823 l 0.154575,-0.176658 h -0.242904 l 0.507891,-0.242905 v -0.08833 h -0.08833 v -0.309152 l 0.331233,-0.154575 v -0.463727 l 0.176658,-0.264987 0.08833,-0.08833 v -0.154575 l 0.08833,-0.176658 v -0.08833 l 0.154576,-0.176658 V 11.39982 l -0.154576,0.08833 -0.264987,-0.242904 H 18.649178 L 18.229615,10.825682 H 18.07504 l -0.08833,-0.08833 h -0.08833 l -0.176658,-0.176658 h -0.309151 l -1.214523,1.059947 v 0.220822 l -0.08833,0.06625 -0.06625,0.176658 -0.861207,0.927453 -0.507891,0.728714 v 0.287069 l -0.242904,0.176658 -0.242905,0.353315 -0.176658,-0.110411 V 14.292593 L 13.680676,13.630126 10.191684,10.052804 H 9.7721212 l -0.1766578,0.176658 -0.3312335,0.110411 v 0.220823 H 8.9329965 L 8.7563387,10.891929 H 8.4251052 l -0.3312334,0.331234 0.2208223,0.883289 1.634085,2.340716 1.8769899,3.687732 -0.618303,1.059948 -0.507891,0.59622 -0.9274538,1.258687 -0.1766578,0.353315 -0.1545756,0.06625 0.088329,0.08833 v 0.176658 H 9.2642299 l 0.088329,0.176658 -0.1766579,0.154575 v 0.08833 L 8.9329965,22.396771 8.8446676,22.750086 8.7342564,22.639675 8.3367763,23.346307 8.0717896,23.67754 v 0.242905 l -0.3312335,0.684549 v 0.176658 l -0.1104111,0.529973 0.1324933,0.39748 h 0.2429046 l 0.3312334,0.331234 0.3312335,0.264986 h 0.1766578 l 0.088329,0.08833 0.3312334,0.154576 h 0.1766579 v 0.176658 h 0.5962202 v 0.176658 l 0.154576,-0.08833 0.08833,0.08833 0.176657,-0.08833 0.08833,-0.176658 0.242905,-0.242905 0.08833,-0.264986 0.220822,-0.331234 h 0.110411 l 0.176658,-0.08833 -0.08833,-0.08833 0.176658,-0.176658 h 0.154576 l -0.06625,0.176658 0.242904,-0.176658 -0.176657,-0.154575 h -0.242905 l 0.176658,-0.176658 0.110411,-0.242904 h 0.39748 v -0.176658 h -0.176658 l 0.19874,-0.419563 h 0.463727 v -0.176658 h -0.331233 v -0.176657 l 0.264986,-0.06625 0.154576,-0.08833 h 0.08833 l 0.331233,-0.419562 -0.154575,0.06625 -0.08833,-0.06625 v -0.176658 h 0.507891 v -0.176658 h 0.08833 l 0.08833,-0.154576 0.154576,-0.08833 0.264986,-0.264986 0.176658,0.19874 1.170358,2.605703 0.927454,1.435345 z m -6.249271,-1.280769 0.331234,-0.331234 -0.176658,-0.176658 v -0.154575 l 0.176658,-0.353316 v -0.08833 l 0.242904,-0.331233 0.176658,-0.08833 0.08833,-0.154576 h 0.176658 l -0.08833,0.154576 0.08833,0.08833 0.154575,-0.176658 -0.08833,-0.06625 0.176657,-0.176658 0.110412,0.220823 -0.287069,0.287069 -0.06625,0.176658 -0.176658,0.06625 v 0.176658 l -0.176658,0.176658 h -0.08833 v 0.154575 l -0.06625,0.08833 -0.08833,0.264987 -0.264987,0.242905 z m 1.08203,-2.031565 -0.06625,-0.08833 0.154575,-0.154576 v -0.176658 l 0.264987,-0.242904 h 0.242905 l 0.419562,-0.507892 h 0.19874 l -0.441644,0.662467 v 0.08833 l -0.331234,0.331234 h -0.08833 l 0.242905,-0.331234 h -0.19874 l -0.39748,0.59622 z m 4.924337,-7.176725 -0.08833,0.242904 h 0.463727 l 0.19874,-0.419562 v -0.08833 L 17.39049,16.324158 V 16.1475 l -0.176657,0.176658 h -0.242905 v 0.574138 h -0.264987 v -0.331234 l -0.154575,0.08833 z m 1.082029,6.006366 -0.331233,-0.861207 v -0.154575 l 0.176657,0.331233 0.242905,0.242905 v 0.507891 z m -5.653051,-0.264986 v -0.176658 l 0.463727,0.110411 -0.220822,0.39748 v -0.242904 l -0.08833,-0.08833 -0.264987,0.419562 z m -0.507891,-0.596221 0.463727,-0.264986 -0.353316,0.507891 z m 4.725597,-4.394363 v 0.176658 l 0.176658,-0.176658 0.08833,-0.242905 -0.08833,-0.08833 z m -6.006366,8.457494 0.176657,-0.08833 0.08833,-0.154576 0.08833,0.154576 -0.264986,0.264987 z m 8.810809,-1.170358 h 0.19874 l 0.132494,0.242904 v 0.08833 z m -8.214589,1.766578 -0.08833,0.264987 0.176658,-0.176658 v -0.08833 z m 6.690915,-10.908622 0.08833,0.08833 0.06625,-0.08833 v -0.08833 z m 0.154576,-1.104111 v 0.176658 h -0.154576 z m -0.662467,1.435345 v 0.264987 l 0.08833,-0.353316 z m -7.1104779,9.981168 h 0.1766579 l -0.088329,0.08833 z m 6.5142579,-8.126261 -0.08833,-0.06625 0.08833,0.242905 z m 0.839125,-3.533157 0.176657,0.154576 h -0.08833 z m -0.08833,7.265054 h 0.08833 v 0.08833 z m -0.662467,-5.918038 0.08833,-0.176657 -0.08833,0.264986 z m -0.08833,0.927454 -0.08833,0.176658 0.08833,-0.08833 z m -0.684549,0.750796 0.08833,-0.154576 -0.08833,0.242905 z m -4.306035,6.183024 h 0.08833 l -0.08833,0.08833 z m -3.0473477,0.176658 v 0.08833 h -0.088329 z m 2.3627987,0.839125 v 0.08833 h -0.08833 z m 2.362798,-2.208223 h 0.08833 l -0.08833,0.08833 z m -3.025265,1.700331 0.06625,0.176658 -0.06625,-0.08833 z"
       style="font-style:normal;font-variant:normal;font-weight:normal;font-stretch:normal;font-family:Bocadillo;-inkscape-font-specification:Bocadillo;stroke-width:1.18297648px"
       id="path819" />
  </g>
</svg>
