<?xml version="1.0" encoding="UTF-8" standalone="no"?>
<svg
   xmlns:dc="http://purl.org/dc/elements/1.1/"
   xmlns:cc="http://creativecommons.org/ns#"
   xmlns:rdf="http://www.w3.org/1999/02/22-rdf-syntax-ns#"
   xmlns:svg="http://www.w3.org/2000/svg"
   xmlns="http://www.w3.org/2000/svg"
   xmlns:sodipodi="http://sodipodi.sourceforge.net/DTD/sodipodi-0.dtd"
   xmlns:inkscape="http://www.inkscape.org/namespaces/inkscape"
   height="32"
   width="32"
   version="1.0"
   viewBox="0 0 32 32"
   id="svg4"
   sodipodi:docname="room-created.svg"
   inkscape:version="0.92.5 (2060ec1f9f, 2020-04-08)"
   inkscape:export-filename="/home/klaus/Repos/cloud_bbb/img/actions/room-created.png"
   inkscape:export-xdpi="96"
   inkscape:export-ydpi="96">
  <metadata
     id="metadata10">
    <rdf:RDF>
      <cc:Work
         rdf:about="">
        <dc:format>image/svg+xml</dc:format>
        <dc:type
           rdf:resource="http://purl.org/dc/dcmitype/StillImage" />
        <dc:title />
      </cc:Work>
    </rdf:RDF>
  </metadata>
  <defs
     id="defs8" />
  <sodipodi:namedview
     pagecolor="#ffffff"
     bordercolor="#666666"
     borderopacity="1"
     objecttolerance="10"
     gridtolerance="10"
     guidetolerance="10"
     inkscape:pageopacity="0"
     inkscape:pageshadow="2"
     inkscape:window-width="1479"
     inkscape:window-height="997"
     id="namedview6"
     showgrid="false"
     inkscape:zoom="10.429825"
     inkscape:cx="-15.100081"
     inkscape:cy="6.5908126"
     inkscape:window-x="1889"
     inkscape:window-y="504"
     inkscape:window-maximized="0"
     inkscape:current-layer="svg4" />
  <path
     style="color:#000000;font-style:normal;font-variant:normal;font-weight:normal;font-stretch:normal;font-size:medium;line-height:normal;font-family:sans-serif;font-variant-ligatures:normal;font-variant-position:normal;font-variant-caps:normal;font-variant-numeric:normal;font-variant-alternates:normal;font-feature-settings:normal;text-indent:0;text-align:start;text-decoration:none;text-decoration-line:none;text-decoration-style:solid;text-decoration-color:#000000;letter-spacing:normal;word-spacing:normal;text-transform:none;writing-mode:lr-tb;direction:ltr;text-orientation:mixed;dominant-baseline:auto;baseline-shift:baseline;text-anchor:start;white-space:normal;shape-padding:0;clip-rule:nonzero;display:inline;overflow:visible;visibility:visible;opacity:1;isolation:auto;mix-blend-mode:normal;color-interpolation:sRGB;color-interpolation-filters:linearRGB;solid-color:#000000;solid-opacity:1;vector-effect:none;fill:#000000;fill-opacity:1;fill-rule:nonzero;stroke:none;stroke-width:2.48244119;stroke-linecap:round;stroke-linejoin:miter;stroke-miterlimit:4;stroke-dasharray:none;stroke-dashoffset:0;stroke-opacity:1;paint-order:markers stroke fill;color-rendering:auto;image-rendering:auto;shape-rendering:auto;text-rendering:auto;enable-background:accumulate"
     d="M 6.140625,2 C 3.8448872,2 2,3.9362265 2,6.2421875 V 25.757812 C 2,28.063773 3.8448872,30 6.140625,30 h 19.71875 C 28.155113,30 30,28.063773 30,25.757812 V 6.2421875 C 30,3.9362265 28.155113,2 25.859375,2 Z m 0,2.4824219 h 19.71875 c 0.917462,0 1.658203,0.7417266 1.658203,1.7597656 V 25.757812 c 0,1.01804 -0.740741,1.759766 -1.658203,1.759766 H 6.140625 c -0.9174623,0 -1.6582031,-0.741726 -1.6582031,-1.759766 V 6.2421875 c 0,-1.018039 0.7407408,-1.7597656 1.6582031,-1.7597656 z"
     id="rect817"
     inkscape:connector-curvature="0" />
  <g
     aria-label="+"
     transform="matrix(1.5934936,0,0,1.2502401,-6.542738,-6.5950957)"
     style="font-style:normal;font-variant:normal;font-weight:normal;font-stretch:normal;font-size:23.68428612px;line-height:125%;font-family:'Helvetica Neue';-inkscape-font-specification:'Helvetica Neue';letter-spacing:0px;word-spacing:0px;fill:#44aa00;fill-opacity:1;stroke:none;stroke-width:1.26880109px;stroke-linecap:butt;stroke-linejoin:miter;stroke-opacity:1"
     id="text817">
    <path
       d="m 13.196362,25.27142 0.307896,0.189474 0.213158,-0.16579 v 0.09474 l 0.236843,-0.09474 0.09474,0.09474 0.142106,-0.09474 h 0.568423 l 0.142106,-0.07105 h 0.33158 l 0.378948,-1.018424 0.118422,-0.82895 -0.118422,-0.402633 0.07105,-0.09474 V 21.95562 l 0.09474,-0.947372 0.07105,-1.894743 h 1.634216 l 1.278951,-0.07105 0.757898,-0.236842 0.16579,-0.16579 v -0.307896 l 0.09474,-0.378949 v -0.260527 l 0.07105,-0.307896 v -0.521054 l -0.402633,-0.49737 h -0.213159 l -0.09474,-0.07105 h -3.292116 v -2.581587 l -0.16579,-1.6579 -0.473686,-1.184214 -0.142105,-0.142106 h -0.781582 l -0.33158,0.07105 -0.07105,0.189474 -0.236842,-0.118421 h -0.378949 l -0.16579,0.16579 v 5.257911 h -2.98422 l -1.16053,0.236843 -0.3552643,0.16579 -0.1894743,0.615792 0.071053,0.07105 -0.071053,0.473686 0.094737,0.189474 -0.094737,0.189475 -0.094737,0.473685 0.1421058,0.16579 2.2736908,0.16579 h 1.752638 l 0.450001,0.07105 -0.09474,3.955276 0.09474,0.99474 z"
       style="font-style:normal;font-variant:normal;font-weight:normal;font-stretch:normal;font-family:Bocadillo;-inkscape-font-specification:Bocadillo;fill:#44aa00;stroke-width:1.26880109px"
       id="path819"
       inkscape:connector-curvature="0" />
  </g>
</svg>
