<?xml version="1.0" encoding="UTF-8" standalone="no"?>
<svg
   xmlns:dc="http://purl.org/dc/elements/1.1/"
   xmlns:cc="http://creativecommons.org/ns#"
   xmlns:rdf="http://www.w3.org/1999/02/22-rdf-syntax-ns#"
   xmlns:svg="http://www.w3.org/2000/svg"
   xmlns="http://www.w3.org/2000/svg"
   xmlns:sodipodi="http://sodipodi.sourceforge.net/DTD/sodipodi-0.dtd"
   xmlns:inkscape="http://www.inkscape.org/namespaces/inkscape"
   height="32"
   width="32"
   version="1.0"
   viewBox="0 0 32 32"
   id="svg4"
   sodipodi:docname="share-created.svg"
   inkscape:version="0.92.5 (2060ec1f9f, 2020-04-08)"
   inkscape:export-filename="/home/klaus/Repos/cloud_bbb/img/actions/share-created.png"
   inkscape:export-xdpi="96"
   inkscape:export-ydpi="96">
  <metadata
     id="metadata10">
    <rdf:RDF>
      <cc:Work
         rdf:about="">
        <dc:format>image/svg+xml</dc:format>
        <dc:type
           rdf:resource="http://purl.org/dc/dcmitype/StillImage" />
        <dc:title />
      </cc:Work>
    </rdf:RDF>
  </metadata>
  <defs
     id="defs8" />
  <sodipodi:namedview
     pagecolor="#ffffff"
     bordercolor="#666666"
     borderopacity="1"
     objecttolerance="10"
     gridtolerance="10"
     guidetolerance="10"
     inkscape:pageopacity="0"
     inkscape:pageshadow="2"
     inkscape:window-width="1907"
     inkscape:window-height="997"
     id="namedview6"
     showgrid="false"
     inkscape:zoom="7.375"
     inkscape:cx="-50.305084"
     inkscape:cy="5.7142748"
     inkscape:window-x="1511"
     inkscape:window-y="343"
     inkscape:window-maximized="0"
     inkscape:current-layer="svg4"
     showguides="false" />
  <path
     style="color:#000000;font-style:normal;font-variant:normal;font-weight:normal;font-stretch:normal;font-size:medium;line-height:normal;font-family:sans-serif;font-variant-ligatures:normal;font-variant-position:normal;font-variant-caps:normal;font-variant-numeric:normal;font-variant-alternates:normal;font-feature-settings:normal;text-indent:0;text-align:start;text-decoration:none;text-decoration-line:none;text-decoration-style:solid;text-decoration-color:#000000;letter-spacing:normal;word-spacing:normal;text-transform:none;writing-mode:lr-tb;direction:ltr;text-orientation:mixed;dominant-baseline:auto;baseline-shift:baseline;text-anchor:start;white-space:normal;shape-padding:0;clip-rule:nonzero;display:inline;overflow:visible;visibility:visible;opacity:1;isolation:auto;mix-blend-mode:normal;color-interpolation:sRGB;color-interpolation-filters:linearRGB;solid-color:#000000;solid-opacity:1;vector-effect:none;fill:#000000;fill-opacity:1;fill-rule:nonzero;stroke:none;stroke-width:2.48244119;stroke-linecap:round;stroke-linejoin:miter;stroke-miterlimit:4;stroke-dasharray:none;stroke-dashoffset:0;stroke-opacity:1;paint-order:markers stroke fill;color-rendering:auto;image-rendering:auto;shape-rendering:auto;text-rendering:auto;enable-background:accumulate"
     d="M 6.140625,2 C 3.8448872,2 2,3.9362265 2,6.2421875 V 25.757812 C 2,28.063773 3.8448872,30 6.140625,30 h 19.71875 C 28.155113,30 30,28.063773 30,25.757812 V 6.2421875 C 30,3.9362265 28.155113,2 25.859375,2 Z m 0,2.4824219 h 19.71875 c 0.917462,0 1.658203,0.7417266 1.658203,1.7597656 V 25.757812 c 0,1.01804 -0.740741,1.759766 -1.658203,1.759766 H 6.140625 c -0.9174623,0 -1.6582031,-0.741726 -1.6582031,-1.759766 V 6.2421875 c 0,-1.018039 0.7407408,-1.7597656 1.6582031,-1.7597656 z"
     id="rect817"
     inkscape:connector-curvature="0" />
  <path
     style="fill:#008000"
     d="m 20.363645,9.0002321 a 2.5,2.5 0 0 0 -2.5,2.4999999 2.5,2.5 0 0 0 0.0059,0.128906 l -4.904297,2.451172 a 2.5,2.5 0 0 0 -1.601563,-0.580078 2.5,2.5 0 0 0 -2.5,2.5 2.5,2.5 0 0 0 2.5,2.5 2.5,2.5 0 0 0 1.601563,-0.582032 l 4.90625,2.453125 a 2.5,2.5 0 0 0 -0.0078,0.128907 2.5,2.5 0 0 0 2.5,2.5 2.5,2.5 0 0 0 2.5,-2.5 2.5,2.5 0 0 0 -2.5,-2.5 2.5,2.5 0 0 0 -1.599609,0.582031 l -4.90625,-2.453125 a 2.5,2.5 0 0 0 0.0059,-0.128906 2.5,2.5 0 0 0 -0.0039,-0.128907 L 18.762083,13.4182 a 2.5,2.5 0 0 0 1.601562,0.582032 2.5,2.5 0 0 0 2.5,-2.5 2.5,2.5 0 0 0 -2.5,-2.4999999 z"
     id="circle814"
     inkscape:connector-curvature="0" />
</svg>
